GIL04_fast2_RRA_states
nRows=4
nColumns=47

# SIMM Motion File Header:
name GIL04_fast2_RRA_states
datacolumns 47
datarows 4
otherdata 1
range 0.33883000000000019000 0.34033000000000019000
endheader
time	pelvis_tx	pelvis_ty	pelvis_tz	pelvis_tilt	pelvis_list	pelvis_rotation	hip_flexion_r	hip_adduction_r	hip_rotation_r	knee_angle_r	ankle_angle_r	subtalar_angle_r	mtp_angle_r	hip_flexion_l	hip_adduction_l	hip_rotation_l	knee_angle_l	ankle_angle_l	subtalar_angle_l	mtp_angle_l	lumbar_extension	lumbar_bending	lumbar_rotation	pelvis_tx_u	pelvis_ty_u	pelvis_tz_u	pelvis_tilt_u	pelvis_list_u	pelvis_rotation_u	hip_flexion_r_u	hip_adduction_r_u	hip_rotation_r_u	knee_angle_r_u	ankle_angle_r_u	subtalar_angle_r_u	mtp_angle_r_u	hip_flexion_l_u	hip_adduction_l_u	hip_rotation_l_u	knee_angle_l_u	ankle_angle_l_u	subtalar_angle_l_u	mtp_angle_l_u	lumbar_extension_u	lumbar_bending_u	lumbar_rotation_u
      0.33883000000000019000	      1.49876972934695130000	      0.75064509220585207000	     -0.16957244905524593000	     -2.49245102125761700000	     -1.28835348050830700000	     -1.23354207208069110000	     -3.94927613462386740000	      5.78995933583013760000	      4.60731322925645510000	     -5.55374674596522230000	      7.13413608658559270000	     -0.00000000000008187883	     -0.00000000000009358494	     31.21556581901309000000	     -2.79687182023508640000	     -6.45274802933133620000	    -35.52292987360303300000	     -2.95008780044304860000	     -0.00000000000000288138	     -0.00000000000000376466	     -6.08081960381311330000	     -0.10552284306406311000	      9.68170956873041710000	      1.16294146692433790000	     -0.17978806097651770000	     -0.01224530329418651800	     10.25480794700461300000	     16.94577614565409000000	    -43.71232704307535500000	   -189.68396918212903000000	    -23.69289444735522600000	     51.47788262417167000000	    141.75941570654248000000	      4.39603279159274600000	     -0.00000000000013431101	     -0.00000000000113527579	     37.95513122220918200000	    -12.17959228822745900000	   -154.39710387576926000000	    403.60159947779601000000	      9.92541686693051520000	     -0.00000000000003675551	     -0.00000000000002665491	    -16.77252405026977300000	    -12.74817043489109600000	     16.39639322511176900000
      0.33933000000000019000	      1.49935141813241900000	      0.75055459404674008000	     -0.16957856819810074000	     -2.48732550245447110000	     -1.27990918764441460000	     -1.25545733034156950000	     -4.04408729822402350000	      5.77809785292545630000	      4.63296275330498370000	     -5.48297610831837550000	      7.13641516968206700000	     -0.00000000000008194639	     -0.00000000000009415498	     31.23437727963332500000	     -2.80301634922526070000	     -6.53034509090382100000	    -35.32098549626786600000	     -2.94523293364169940000	     -0.00000000000000289947	     -0.00000000000000377783	     -6.08913843683362190000	     -0.11185006679549907000	      9.68992534127746370000	      1.16381307067495630000	     -0.18220303728204335000	     -0.01222929458232751100	     10.24736703924496300000	     16.83085222354480900000	    -43.94867007897448700000	   -189.56009303478751000000	    -23.75253226791414800000	     51.11988896478512600000	    141.32194499437517000000	      4.72111885312227300000	     -0.00000000000014274988	     -0.00000000000112884089	     37.29108822443735200000	    -12.39818336821093700000	   -155.98603687843624000000	    404.17427462824702000000	      9.49573299911632240000	     -0.00000000000003578367	     -0.00000000000002665823	    -16.50330226600852200000	    -12.56091719371546300000	     16.46764521657177800000
      0.33983000000000019000	      1.49993354178517400000	      0.75046289072922046000	     -0.16958467639805588000	     -2.48220355638781950000	     -1.27152317592739190000	     -1.27749068649999040000	     -4.13883563843050870000	      5.76620731574374370000	      4.65843277995623590000	     -5.41242595219057420000	      7.13885753495250870000	     -0.00000000000008201378	     -0.00000000000009472889	     31.25285728715771700000	     -2.80926966105288360000	     -6.60872894102069350000	    -35.11875723304335400000	     -2.94059042197492590000	     -0.00000000000000291756	     -0.00000000000000379125	     -6.09732341277842950000	     -0.11808394510029367000	      9.69817813512849190000	      1.16468087875030310000	     -0.18460864664546758000	     -0.01220157550129557700	     10.24051320057269100000	     16.71264247318482500000	    -44.18467856516699800000	   -189.43268191583601000000	    -23.80909669380396600000	     50.75986612917010600000	    140.87756786900940000000	      5.04818381923858970000	     -0.00000000000013104682	     -0.00000000000112831093	     36.62932553361731900000	    -12.61471892492100700000	   -157.54421676005964000000	    404.73714458986086000000	      9.07592238050786550000	     -0.00000000000003573348	     -0.00000000000002634032	    -16.23712109664919400000	    -12.37477309941425000000	     16.54442392053415000000
      0.34033000000000019000	      1.50051609834493390000	      0.75036998698641433000	     -0.16959076783041141000	     -2.47708489516306910000	     -1.26319710212686980000	     -1.29964194563416500000	     -4.23351938579096480000	      5.75428928650615570000	      4.68372231724046980000	     -5.34209968998158670000	      7.14146368417965060000	     -0.00000000000008207902	     -0.00000000000009528673	     31.27100699774736700000	     -2.81563073273701560000	     -6.68788410215142640000	    -34.91624999985795300000	     -2.93615537788551650000	     -0.00000000000000293531	     -0.00000000000000380423	     -6.10537607625768080000	     -0.12422501223791588000	      9.70647067197549340000	      1.16554468831730200000	     -0.18700473512237986000	     -0.01216219734229737200	     10.23422391875705500000	     16.59109104201643300000	    -44.42030701137064600000	   -189.30170488458774000000	    -23.86247930894482700000	     50.39803086622144700000	    140.42629418241685000000	      5.37723491432513790000	     -0.00000000000010960085	     -0.00000000000115305756	     35.96991921391629900000	    -12.82924192969144000000	   -159.07116111240092000000	    405.29012465708900000000	      8.66591276456833270000	     -0.00000000000003651181	     -0.00000000000002376424	    -15.97405023059527100000	    -12.18966319578676800000	     16.62664309152669500000
